<svg width="12" height="16" viewBox="0 0 12 16" fill="none" xmlns="http://www.w3.org/2000/svg">
<path d="M1.15844 15.14C0.891771 15.14 0.671771 15.0733 0.498438 14.94C0.325104 14.7933 0.225104 14.6133 0.198438 14.4C0.171771 14.1733 0.245104 13.9467 0.418438 13.72L5.13844 7.38V8.22L0.678438 2.22C0.505104 1.98 0.425104 1.74667 0.438438 1.52C0.465104 1.29333 0.565104 1.11333 0.738438 0.979999C0.911771 0.833333 1.1251 0.76 1.37844 0.76C1.59177 0.76 1.77844 0.813333 1.93844 0.919999C2.11177 1.01333 2.2851 1.18 2.45844 1.42L6.33844 6.74H5.69844L9.53844 1.42C9.71177 1.18 9.87844 1.01333 10.0384 0.919999C10.2118 0.813333 10.4118 0.76 10.6384 0.76C10.9051 0.76 11.1251 0.833333 11.2984 0.979999C11.4718 1.11333 11.5651 1.29333 11.5784 1.52C11.6051 1.73333 11.5251 1.96667 11.3384 2.22L6.87844 8.22V7.38L11.5784 13.72C11.7518 13.9467 11.8251 14.1733 11.7984 14.4C11.7851 14.6133 11.6918 14.7933 11.5184 14.94C11.3451 15.0733 11.1184 15.14 10.8384 15.14C10.6384 15.14 10.4518 15.0867 10.2784 14.98C10.1051 14.8733 9.9251 14.7067 9.73844 14.48L5.61844 8.84H6.37844L2.27844 14.48C2.1051 14.7067 1.9251 14.8733 1.73844 14.98C1.5651 15.0867 1.37177 15.14 1.15844 15.14Z" fill="#ADB5BD"/>
</svg>
